<svg aria-hidden="true" style="position: absolute; width: 0; height: 0; overflow: hidden;" version="1.1" xmlns="http://www.w3.org/2000/svg" xmlns:xlink="http://www.w3.org/1999/xlink">
<defs>
<symbol id="icon-Vector-5-1" viewBox="0 0 0 32">
<path d="M22.864 21.12l-8-8 1.136-1.12 1.12 1.12-8 8-2.256-2.256 9.136-9.136 9.12 9.136-2.256 2.256z"></path>
</symbol>
<symbol id="icon-bar" viewBox="0 0 44032 32">
<path d="M22.864 21.12l-8-8 1.136-1.12 1.12 1.12-8 8-2.256-2.256 9.136-9.136 9.12 9.136-2.256 2.256z"></path>
</symbol>
<symbol id="icon-arrow-down" viewBox="0 0 32 32">
<path d="M22.864 10.864l-8 8 1.136 1.136 1.12-1.136-8-8-2.256 2.256 9.136 9.136 9.12-9.136-2.256-2.256z"></path>
</symbol>
<symbol id="icon-arrow-up" viewBox="0 0 32 32">
<path d="M22.864 21.12l-8-8 1.136-1.12 1.12 1.12-8 8-2.256-2.256 9.136-9.136 9.12 9.136-2.256 2.256z"></path>
</symbol>
</defs>
</svg>
